<?xml version="1.0" standalone="no"?>
<!DOCTYPE svg PUBLIC "-//W3C//DTD SVG 20010904//EN"
 "http://www.w3.org/TR/2001/REC-SVG-20010904/DTD/svg10.dtd">
<svg version="1.0" xmlns="http://www.w3.org/2000/svg"
 width="493.000000pt" height="482.000000pt" viewBox="0 0 493.000000 482.000000"
 preserveAspectRatio="xMidYMid meet">

<g transform="translate(0.000000,482.000000) scale(0.100000,-0.100000)"
fill="#000000" stroke="none">
<path d="M800 4619 c-30 -5 -93 -28 -140 -51 -73 -35 -102 -58 -208 -162 -145
-141 -197 -212 -229 -313 -47 -148 -37 -294 28 -431 30 -62 82 -117 638 -674
l606 -608 -606 -607 c-672 -675 -652 -650 -685 -820 -26 -132 1 -289 69 -398
42 -67 247 -277 321 -328 159 -108 383 -123 564 -36 62 30 117 82 675 638
l607 606 603 -601 c368 -368 620 -611 647 -627 133 -75 305 -94 450 -49 108
34 180 85 322 230 144 147 187 220 215 361 22 112 8 221 -44 336 -37 80 -39
82 -642 687 l-606 608 606 607 c552 554 608 614 636 673 81 171 81 333 1 500
-36 76 -55 99 -182 226 -161 162 -227 202 -375 231 -112 22 -221 8 -336 -44
-80 -37 -82 -39 -687 -642 l-608 -606 -607 606 c-646 643 -636 634 -772 676
-60 18 -193 24 -261 12z"/>
</g>
</svg>
